<svg xmlns="http://www.w3.org/2000/svg" version="1.1" xmlns:xlink="http://www.w3.org/1999/xlink" xmlns:svgjs="http://svgjs.com/svgjs" width="1920" height="1080" preserveAspectRatio="none" viewBox="0 0 1920 1080"><g mask="url(&quot;#SvgjsMask12662&quot;)" fill="none"><rect width="1920" height="1080" x="0" y="0" fill="url(#SvgjsLinearGradient12663)"></rect><rect width="288" height="288" clip-path="url(&quot;#SvgjsClipPath12664&quot;)" x="360.18" y="-59.7" fill="url(#SvgjsPattern12665)" transform="rotate(119.24, 504.18, 84.3)"></rect><rect width="324" height="324" clip-path="url(&quot;#SvgjsClipPath12666&quot;)" x="1413.25" y="111.45" fill="url(#SvgjsPattern12667)" transform="rotate(215.38, 1575.25, 273.45)"></rect><circle r="90" cx="1719.85" cy="253.51" fill="rgba(255, 136, 17, 1)"></circle><path d="M1026.75 599.9499999999999 L710.2099999999999 827.8299999999999L1143.703261186885 989.1132611868848z" fill="rgba(255, 136, 17, 1)"></path><path d="M1618.17 67.81a5.6 5.6 0 1 0 6.48-9.14 5.6 5.6 0 1 0-6.48 9.14zM1627.42 54.75a5.6 5.6 0 1 0 6.48-9.14 5.6 5.6 0 1 0-6.48 9.14zM1636.67 41.7a5.6 5.6 0 1 0 6.48-9.14 5.6 5.6 0 1 0-6.48 9.14zM1645.92 28.64a5.6 5.6 0 1 0 6.48-9.14 5.6 5.6 0 1 0-6.48 9.14zM1612.72 103.17a5.6 5.6 0 1 0 6.48-9.14 5.6 5.6 0 1 0-6.48 9.14zM1621.98 90.11a5.6 5.6 0 1 0 6.47-9.14 5.6 5.6 0 1 0-6.47 9.14zM1631.23 77.06a5.6 5.6 0 1 0 6.47-9.14 5.6 5.6 0 1 0-6.47 9.14zM1640.48 64a5.6 5.6 0 1 0 6.47-9.14 5.6 5.6 0 1 0-6.47 9.14z" fill="rgba(115, 0, 113, 1)"></path><circle r="90" cx="47.08" cy="202.49" fill="rgba(255, 136, 17, 1)"></circle><rect width="192" height="192" clip-path="url(&quot;#SvgjsClipPath12668&quot;)" x="1258.76" y="642.11" fill="url(#SvgjsPattern12669)" transform="rotate(150.6, 1354.76, 738.11)"></rect><rect width="422.8" height="422.8" clip-path="url(&quot;#SvgjsClipPath12670&quot;)" x="887.93" y="717.64" fill="url(#SvgjsPattern12671)" transform="rotate(128.02, 1099.33, 929.04)"></rect></g><defs><mask id="SvgjsMask12662"><rect width="1920" height="1080" fill="#ffffff"></rect></mask><linearGradient x1="100%" y1="50%" x2="0%" y2="50%" gradientUnits="userSpaceOnUse" id="SvgjsLinearGradient12663"><stop stop-color="rgba(255, 120, 90, 1)" offset="0"></stop><stop stop-color="rgba(196, 144, 209, 1)" offset="1"></stop></linearGradient><pattern x="0" y="0" width="6" height="6" patternUnits="userSpaceOnUse" id="SvgjsPattern12665"><path d="M0 6L3 0L6 6" stroke="rgba(115, 0, 113, 1)" fill="none"></path></pattern><clipPath id="SvgjsClipPath12664"><circle r="72" cx="504.18" cy="84.3"></circle></clipPath><pattern x="0" y="0" width="6" height="6" patternUnits="userSpaceOnUse" id="SvgjsPattern12667"><path d="M0 6L3 0L6 6" stroke="rgba(115, 0, 113, 1)" fill="none"></path></pattern><clipPath id="SvgjsClipPath12666"><circle r="81" cx="1575.25" cy="273.45"></circle></clipPath><pattern x="0" y="0" width="192" height="6" patternUnits="userSpaceOnUse" id="SvgjsPattern12669"><rect width="192" height="3" x="0" y="0" fill="rgba(255, 56, 100, 1)"></rect><rect width="192" height="3" x="0" y="3" fill="rgba(0, 0, 0, 0)"></rect></pattern><clipPath id="SvgjsClipPath12668"><circle r="48" cx="1354.76" cy="738.11"></circle></clipPath><pattern x="0" y="0" width="422.8" height="6.04" patternUnits="userSpaceOnUse" id="SvgjsPattern12671"><rect width="422.8" height="3.02" x="0" y="0" fill="rgba(255, 56, 100, 1)"></rect><rect width="422.8" height="3.02" x="0" y="3.02" fill="rgba(0, 0, 0, 0)"></rect></pattern><clipPath id="SvgjsClipPath12670"><circle r="105.7" cx="1099.33" cy="929.04"></circle></clipPath></defs></svg>